<?xml version="1.0" encoding="UTF-8"?>
<svg xmlns="http://www.w3.org/2000/svg" viewBox="0 0 1440 460" preserveAspectRatio="xMidYMid slice">
  <defs>
    <linearGradient id="sky" x1="0" y1="0" x2="0" y2="1">
      <stop offset="0%"   stop-color="#010207"/>
      <stop offset="50%"  stop-color="#030d1a"/>
      <stop offset="100%" stop-color="#060c18"/>
    </linearGradient>
    <radialGradient id="mintGlow" cx="50%" cy="100%" r="62%">
      <stop offset="0%"   stop-color="#00FFAA" stop-opacity="0.38"/>
      <stop offset="55%"  stop-color="#00FFAA" stop-opacity="0.09"/>
      <stop offset="100%" stop-color="#00FFAA" stop-opacity="0"/>
    </radialGradient>
    <radialGradient id="rChan" cx="28%" cy="90%" r="44%">
      <stop offset="0%"   stop-color="#FF003C" stop-opacity="0.15"/>
      <stop offset="100%" stop-color="#FF003C" stop-opacity="0"/>
    </radialGradient>
    <radialGradient id="bChan" cx="74%" cy="86%" r="40%">
      <stop offset="0%"   stop-color="#0055FF" stop-opacity="0.13"/>
      <stop offset="100%" stop-color="#0055FF" stop-opacity="0"/>
    </radialGradient>
    <pattern id="scan" x="0" y="0" width="1440" height="4" patternUnits="userSpaceOnUse">
      <rect width="1440" height="1" fill="#000" fill-opacity="0.18"/>
    </pattern>
    <!-- Glitch strip clip regions — horizontal slices for displacement effect -->
    <clipPath id="gs1"><rect x="0" y="182" width="1440" height="8"/></clipPath>
    <clipPath id="gs2"><rect x="0" y="248" width="1440" height="6"/></clipPath>
    <clipPath id="gs3"><rect x="0" y="318" width="1440" height="10"/></clipPath>
    <clipPath id="gs4"><rect x="0" y="390" width="1440" height="5"/></clipPath>
  </defs>

  <!-- Sky -->
  <rect width="1440" height="460" fill="url(#sky)"/>

  <!-- Stars — white -->
  <circle cx="68"  cy="42"  r="0.8" fill="#fff" opacity="0.70"/>
  <circle cx="145" cy="26"  r="1.1" fill="#fff" opacity="0.60"/>
  <circle cx="228" cy="60"  r="0.6" fill="#fff" opacity="0.50"/>
  <circle cx="312" cy="16"  r="0.9" fill="#fff" opacity="0.65"/>
  <circle cx="418" cy="33"  r="0.7" fill="#fff" opacity="0.40"/>
  <circle cx="510" cy="54"  r="1.2" fill="#fff" opacity="0.60"/>
  <circle cx="598" cy="20"  r="0.8" fill="#fff" opacity="0.55"/>
  <circle cx="682" cy="38"  r="1.0" fill="#fff" opacity="0.70"/>
  <circle cx="778" cy="14"  r="0.6" fill="#fff" opacity="0.50"/>
  <circle cx="876" cy="48"  r="0.9" fill="#fff" opacity="0.60"/>
  <circle cx="962" cy="28"  r="1.1" fill="#fff" opacity="0.50"/>
  <circle cx="1048" cy="18" r="0.7" fill="#fff" opacity="0.68"/>
  <circle cx="1132" cy="46" r="0.9" fill="#fff" opacity="0.42"/>
  <circle cx="1218" cy="30" r="0.8" fill="#fff" opacity="0.58"/>
  <circle cx="1308" cy="55" r="1.0" fill="#fff" opacity="0.52"/>
  <circle cx="1392" cy="22" r="0.7" fill="#fff" opacity="0.65"/>
  <circle cx="52"  cy="88"  r="0.6" fill="#fff" opacity="0.40"/>
  <circle cx="188" cy="104" r="0.8" fill="#fff" opacity="0.45"/>
  <circle cx="378" cy="76"  r="0.7" fill="#fff" opacity="0.38"/>
  <circle cx="558" cy="92"  r="0.9" fill="#fff" opacity="0.48"/>
  <circle cx="740" cy="68"  r="0.6" fill="#fff" opacity="0.40"/>
  <circle cx="918" cy="86"  r="0.8" fill="#fff" opacity="0.46"/>
  <circle cx="1082" cy="70" r="1.0" fill="#fff" opacity="0.38"/>
  <circle cx="1258" cy="90" r="0.7" fill="#fff" opacity="0.46"/>
  <circle cx="1412" cy="78" r="0.6" fill="#fff" opacity="0.40"/>

  <!-- Stars — Glitch Mint (#00FFAA) -->
  <circle cx="165" cy="36"  r="1.1" fill="#00FFAA" opacity="0.85"/>
  <circle cx="452" cy="19"  r="0.9" fill="#00FFAA" opacity="0.75"/>
  <circle cx="728" cy="50"  r="1.3" fill="#00FFAA" opacity="0.70"/>
  <circle cx="1008" cy="33" r="1.0" fill="#00FFAA" opacity="0.78"/>
  <circle cx="1348" cy="40" r="1.2" fill="#00FFAA" opacity="0.68"/>
  <circle cx="824" cy="80"  r="0.8" fill="#00FFAA" opacity="0.55"/>
  <circle cx="338" cy="66"  r="0.9" fill="#00FFAA" opacity="0.52"/>
  <circle cx="580" cy="112" r="0.7" fill="#00FFAA" opacity="0.45"/>

  <!-- Atmospheric channel glows -->
  <rect width="1440" height="460" fill="url(#rChan)"/>
  <rect width="1440" height="460" fill="url(#bChan)"/>

  <!-- ─── FAR MOUNTAINS — RGB SPLIT ─── -->
  <!-- Red channel: shifted left 8px -->
  <path d="M-8,290 L92,242 L192,260 L342,214 L492,232 L642,202 L792,220 L942,192 L1092,210 L1242,180 L1342,200 L1432,190 L1432,460 L-8,460 Z"
        fill="#FF003C" opacity="0.32"/>
  <!-- Blue channel: shifted right 8px -->
  <path d="M8,290 L108,242 L208,260 L358,214 L508,232 L658,202 L808,220 L958,192 L1108,210 L1258,180 L1358,200 L1448,190 L1448,460 L8,460 Z"
        fill="#0055FF" opacity="0.28"/>
  <!-- Main far mountains -->
  <path d="M0,290 L100,242 L200,260 L350,214 L500,232 L650,202 L800,220 L950,192 L1100,210 L1250,180 L1350,200 L1440,190 L1440,460 L0,460 Z"
        fill="#0b1820"/>
  <!-- Mint ridge trace -->
  <path d="M0,290 L100,242 L200,260 L350,214 L500,232 L650,202 L800,220 L950,192 L1100,210 L1250,180 L1350,200 L1440,190"
        fill="none" stroke="#00FFAA" stroke-width="0.7" opacity="0.22"/>

  <!-- Glitch strip 1 — red displacement at y=182 -->
  <g clip-path="url(#gs1)">
    <rect x="0" y="182" width="1440" height="8" fill="#FF003C" fill-opacity="0.08"/>
    <path d="M0,290 L100,242 L200,260 L350,214 L500,232 L650,202 L800,220 L950,192 L1100,210 L1250,180 L1350,200 L1440,190 L1440,460 L0,460 Z"
          fill="#FF003C" opacity="0.55" transform="translate(24,0)"/>
  </g>

  <!-- ─── MID MOUNTAINS — RGB SPLIT ─── -->
  <!-- Red channel: shifted left 6px -->
  <path d="M-6,352 L144,304 L294,322 L444,282 L594,300 L714,270 L844,290 L994,260 L1144,280 L1294,250 L1434,270 L1434,460 L-6,460 Z"
        fill="#FF003C" opacity="0.24"/>
  <!-- Blue channel: shifted right 6px -->
  <path d="M6,352 L156,304 L306,322 L456,282 L606,300 L726,270 L856,290 L1006,260 L1156,280 L1306,250 L1446,270 L1446,460 L6,460 Z"
        fill="#0055FF" opacity="0.22"/>
  <!-- Main mid mountains -->
  <path d="M0,352 L150,304 L300,322 L450,282 L600,300 L720,270 L850,290 L1000,260 L1150,280 L1300,250 L1440,270 L1440,460 L0,460 Z"
        fill="#060a10"/>
  <!-- Mint ridge trace — brighter on mid range -->
  <path d="M0,352 L150,304 L300,322 L450,282 L600,300 L720,270 L850,290 L1000,260 L1150,280 L1300,250 L1440,270"
        fill="none" stroke="#00FFAA" stroke-width="1.2" opacity="0.42"/>

  <!-- Glitch strip 2 — cyan displacement at y=248 -->
  <g clip-path="url(#gs2)">
    <rect x="0" y="248" width="1440" height="6" fill="#00FFAA" fill-opacity="0.07"/>
    <path d="M0,352 L150,304 L300,322 L450,282 L600,300 L720,270 L850,290 L1000,260 L1150,280 L1300,250 L1440,270 L1440,460 L0,460 Z"
          fill="#00FFAA" opacity="0.30" transform="translate(-20,0)"/>
  </g>

  <!-- Glitch strip 3 — blue displacement at y=318 -->
  <g clip-path="url(#gs3)">
    <rect x="0" y="318" width="1440" height="10" fill="#0055FF" fill-opacity="0.09"/>
    <path d="M0,352 L150,304 L300,322 L450,282 L600,300 L720,270 L850,290 L1000,260 L1150,280 L1300,250 L1440,270 L1440,460 L0,460 Z"
          fill="#0055FF" opacity="0.38" transform="translate(16,0)"/>
  </g>

  <!-- ─── NEAR FOOTHILLS ─── -->
  <path d="M0,418 L200,400 L380,412 L560,394 L740,408 L920,392 L1100,404 L1300,390 L1440,400 L1440,460 L0,460 Z"
        fill="#020306"/>

  <!-- Glitch strip 4 — mint displacement at foothills -->
  <g clip-path="url(#gs4)">
    <rect x="0" y="390" width="1440" height="5" fill="#00FFAA" fill-opacity="0.05"/>
    <path d="M0,418 L200,400 L380,412 L560,394 L740,408 L920,392 L1100,404 L1300,390 L1440,400 L1440,460 L0,460 Z"
          fill="#00FFAA" opacity="0.22" transform="translate(-12,0)"/>
  </g>

  <!-- ─── PIXEL ARTIFACT NOISE (glitch data corruption) ─── -->
  <!-- Long colored strips simulating corrupt scan lines in the sky -->
  <rect x="78"   y="158" width="140" height="2" fill="#00FFAA" fill-opacity="0.42"/>
  <rect x="398"  y="156" width="68"  height="1" fill="#FF003C" fill-opacity="0.52"/>
  <rect x="692"  y="160" width="95"  height="2" fill="#0055FF" fill-opacity="0.38"/>
  <rect x="1088" y="157" width="82"  height="1" fill="#00FFAA" fill-opacity="0.48"/>
  <rect x="1278" y="161" width="55"  height="2" fill="#FF003C" fill-opacity="0.38"/>

  <rect x="195"  y="228" width="88"  height="2" fill="#FF003C" fill-opacity="0.38"/>
  <rect x="535"  y="226" width="118" height="1" fill="#00FFAA" fill-opacity="0.32"/>
  <rect x="855"  y="230" width="62"  height="2" fill="#0055FF" fill-opacity="0.42"/>
  <rect x="1192" y="225" width="98"  height="1" fill="#FF003C" fill-opacity="0.36"/>

  <rect x="345"  y="288" width="78"  height="2" fill="#00FFAA" fill-opacity="0.28"/>
  <rect x="752"  y="286" width="108" height="1" fill="#FF003C" fill-opacity="0.32"/>
  <rect x="1042" y="290" width="72"  height="2" fill="#0055FF" fill-opacity="0.30"/>

  <!-- Bright "dead pixel" anchors at artifact start points -->
  <rect x="78"   y="158" width="3" height="3" fill="#00FFAA" fill-opacity="0.95"/>
  <rect x="399"  y="156" width="2" height="4" fill="#FF003C" fill-opacity="1.00"/>
  <rect x="693"  y="160" width="3" height="3" fill="#fff"    fill-opacity="0.80"/>
  <rect x="1089" y="157" width="2" height="3" fill="#00FFAA" fill-opacity="1.00"/>
  <rect x="196"  y="228" width="3" height="3" fill="#FF003C" fill-opacity="0.90"/>
  <rect x="536"  y="226" width="2" height="4" fill="#00FFAA" fill-opacity="0.85"/>
  <rect x="1193" y="225" width="3" height="3" fill="#FF003C" fill-opacity="0.88"/>
  <rect x="346"  y="288" width="2" height="3" fill="#00FFAA" fill-opacity="1.00"/>
  <rect x="856"  y="230" width="3" height="2" fill="#0055FF" fill-opacity="0.90"/>

  <!-- Full-width ultra-thin channel lines (the "TV interference" look) -->
  <rect x="0" y="140" width="1440" height="1" fill="#00FFAA" fill-opacity="0.07"/>
  <rect x="0" y="236" width="1440" height="1" fill="#FF003C" fill-opacity="0.08"/>
  <rect x="0" y="324" width="1440" height="1" fill="#0055FF" fill-opacity="0.09"/>
  <rect x="0" y="408" width="1440" height="1" fill="#00FFAA" fill-opacity="0.06"/>

  <!-- Additional mid-sky glitch artifact clusters -->
  <rect x="620"  y="120" width="22" height="2" fill="#FF003C" fill-opacity="0.50"/>
  <rect x="642"  y="120" width="8"  height="2" fill="#00FFAA" fill-opacity="0.70"/>
  <rect x="620"  y="120" width="2"  height="2" fill="#fff"    fill-opacity="0.80"/>

  <rect x="1150" y="135" width="35" height="1" fill="#0055FF" fill-opacity="0.55"/>
  <rect x="1185" y="135" width="12" height="1" fill="#00FFAA" fill-opacity="0.65"/>
  <rect x="1150" y="135" width="2"  height="2" fill="#fff"    fill-opacity="0.75"/>

  <rect x="280"  y="108" width="18" height="2" fill="#00FFAA" fill-opacity="0.60"/>
  <rect x="298"  y="108" width="6"  height="2" fill="#FF003C" fill-opacity="0.65"/>

  <!-- Mint horizon glow -->
  <rect width="1440" height="460" fill="url(#mintGlow)"/>

  <!-- Scanlines (CRT vibe) -->
  <rect width="1440" height="460" fill="url(#scan)"/>

  <!-- Bright mint horizon line just above mid-mountain ridge -->
  <rect x="0" y="268" width="1440" height="2" fill="#00FFAA" fill-opacity="0.18"/>
</svg>
